<svg xmlns="http://www.w3.org/2000/svg" xmlns:xlink="http://www.w3.org/1999/xlink" width="540" height="135" viewBox="0 0 540 135"><defs><clipPath id="b"><rect width="540" height="135"/></clipPath></defs><g id="a" clip-path="url(#b)"><rect width="540" height="135" fill="#fff"/><rect width="20" height="80" transform="translate(90.569 32) rotate(45)" fill="#e31117"/><rect width="20" height="80" transform="translate(34 46.142) rotate(-45)" fill="#e31117"/><path d="M52.256,0V-50.552H40.044L28.684-28.258,17.324-50.552H5.112V0H17.537V-24.211l7.171,12.5H32.66l7.171-12.5V0Zm51.475,0L85.342-50.552H75.757L57.368,0H70.361l2.485-7.526H88.4L90.738,0Zm-18.6-17.892h-8.8l4.544-13.49ZM148.745,0,132.983-25.915l14.768-24.637H133.622l-7.384,14.271-7.384-14.271H104.725l14.768,24.637L103.731,0h14.2l8.307-15.549L134.545,0Zm37.772-13.916a12.657,12.657,0,0,0-4.26-10.011c-2.13-1.846-4.473-2.84-9.23-3.55l-5.538-.852a14.541,14.541,0,0,1-6.816-2.769A7.3,7.3,0,0,1,158.4-36.92c0-5.609,3.9-9.372,10.65-9.372,5.325,0,8.662,1.491,11.786,4.331l3.479-3.479c-4.331-3.905-8.591-5.538-15.052-5.538-10.011,0-16.188,5.68-16.188,14.271,0,4.047,1.278,7.171,3.834,9.443,2.2,1.917,5.325,3.2,9.3,3.834l5.893.923c3.692.568,4.97.994,6.6,2.414a8.138,8.138,0,0,1,2.414,6.319c0,5.893-4.544,9.372-11.928,9.372-5.68,0-9.585-1.349-13.774-5.538l-3.692,3.692c4.757,4.757,9.727,6.674,17.324,6.674C179.559.426,186.517-5.041,186.517-13.916Zm40.754-31.808v-4.828H192.623v4.828h14.626V0h5.4V-45.724Zm44.02,29.039V-50.552h-5.4v33.441c0,7.668-4.9,12.709-12.283,12.709S241.4-9.443,241.4-17.111V-50.552H236v33.867C236-6.6,243.388.426,253.612.426S271.291-6.6,271.291-16.685Zm48.99-9.159c0-7.029.284-14.768-4.97-20.022-3.053-3.053-7.526-4.686-12.78-4.686H285.207V0h17.324c5.254,0,9.727-1.633,12.78-4.686C320.565-9.94,320.281-18.815,320.281-25.844Zm-5.4,0c0,6.177.142,13.7-3.337,17.324-2.627,2.7-6.035,3.692-9.94,3.692h-11v-40.9h11c3.9,0,7.313.994,9.94,3.692C315.027-38.411,314.885-32.021,314.885-25.844ZM338.386,0V-50.552h-5.4V0Zm48.067-25.276c0-10.721,0-15.691-4.757-20.448a17.9,17.9,0,0,0-12.922-5.254,17.9,17.9,0,0,0-12.922,5.254C351.1-40.967,351.1-36,351.1-25.276s0,15.691,4.757,20.448A17.9,17.9,0,0,0,368.774.426,17.9,17.9,0,0,0,381.7-4.828C386.453-9.585,386.453-14.555,386.453-25.276Zm-5.4,0c0,10.579-.355,13.987-3.55,17.253A12.231,12.231,0,0,1,368.774-4.4a12.231,12.231,0,0,1-8.733-3.621c-3.2-3.266-3.55-6.674-3.55-17.253s.355-13.987,3.55-17.253a12.231,12.231,0,0,1,8.733-3.621,12.231,12.231,0,0,1,8.733,3.621C380.7-39.263,381.057-35.855,381.057-25.276Z" transform="translate(119.744 92.564)"/></g></svg>