<?xml version="1.0" encoding="UTF-8" standalone="no"?><!DOCTYPE svg PUBLIC "-//W3C//DTD SVG 1.1//EN" "http://www.w3.org/Graphics/SVG/1.1/DTD/svg11.dtd"><svg width="100%" height="100%" viewBox="0 0 250 363" version="1.1" xmlns="http://www.w3.org/2000/svg" xmlns:xlink="http://www.w3.org/1999/xlink" xml:space="preserve" xmlns:serif="http://www.serif.com/" style="fill-rule:evenodd;clip-rule:evenodd;stroke-linejoin:round;stroke-miterlimit:2;"><path d="M102.046,354.911l-0,2.083l94.841,0l0,-349.316l-68.972,-0l-0.437,1.502c-2.861,9.855 -6.507,18.203 -10.957,25.038c-4.365,6.702 -9.975,12.003 -16.834,15.9c-6.964,3.958 -15.358,6.794 -25.172,8.535c-9.973,1.77 -21.877,2.65 -35.711,2.65l-2.083,-0l-0,60.716l65.325,0c-0,0 -0,232.892 -0,232.892Zm4.166,-2.083l0.001,-234.975l-65.325,-0c-0.001,-0 -0.001,-52.391 -0.001,-52.391c13.232,-0.085 24.683,-0.99 34.356,-2.706c10.336,-1.834 19.168,-4.847 26.503,-9.015c7.441,-4.228 13.531,-9.977 18.266,-17.25c4.422,-6.79 8.102,-15.004 11.022,-24.647c0,0 61.687,0 61.687,0c-0,0 -0,340.984 -0,340.984l-86.509,-0Z" style="fill:#e31117;"/></svg>