<?xml version="1.0" encoding="UTF-8" standalone="no"?><!DOCTYPE svg PUBLIC "-//W3C//DTD SVG 1.1//EN" "http://www.w3.org/Graphics/SVG/1.1/DTD/svg11.dtd"><svg width="100%" height="100%" viewBox="0 0 250 363" version="1.1" xmlns="http://www.w3.org/2000/svg" xmlns:xlink="http://www.w3.org/1999/xlink" xml:space="preserve" xmlns:serif="http://www.serif.com/" style="fill-rule:evenodd;clip-rule:evenodd;stroke-linejoin:round;stroke-miterlimit:2;"><path d="M193.858,171.745c6.705,-2.098 12.514,-5.097 17.433,-8.98c6.386,-5.041 11.507,-10.842 15.372,-17.396c3.849,-6.525 6.61,-13.552 8.283,-21.081c1.66,-7.468 2.487,-14.688 2.487,-21.658c0,-15.492 -1.739,-29.252 -5.2,-41.283c-3.516,-12.224 -9.553,-22.519 -18.093,-30.892c-8.503,-8.337 -19.911,-14.697 -34.25,-19.032c-14.135,-4.274 -31.885,-6.427 -53.252,-6.427c-36.07,0 -63.172,8.708 -81.375,25.913c-18.213,16.894 -27.939,43.677 -28.933,80.439l-0.058,2.14l86.124,0l-0,-2.083c-0,-17.708 1.714,-29.897 5.35,-36.537c3.366,-6.148 9.038,-9.155 16.941,-9.155c7.028,0 12.266,2.176 15.634,6.714c3.576,4.82 5.196,14.259 5.196,28.253c-0,9.862 -0.782,17.897 -2.373,24.101c-1.526,5.954 -3.782,10.626 -6.836,13.985c-2.981,3.279 -6.711,5.508 -11.182,6.701c-4.726,1.26 -10.398,1.879 -17.014,1.879l-15.245,0l-0,60.717l24.995,0c10.66,0 18.546,2.617 23.571,8.099c5.134,5.601 7.496,16.538 7.496,32.718c0,10.647 -0.321,19.439 -0.966,26.375c-0.624,6.713 -1.771,12.027 -3.489,15.929c-1.549,3.522 -3.686,5.959 -6.504,7.227c-3.029,1.363 -6.973,2.01 -11.82,2.01c-8.831,0 -15.034,-3.794 -18.572,-11.439c-1.89,-4.418 -3.379,-9.781 -4.482,-16.086c-1.121,-6.405 -1.675,-14.41 -1.675,-24.016l-0,-2.084l-88.992,0l0,2.084c0,21.054 2.32,38.734 6.925,53.044c4.675,14.524 11.873,26.114 21.555,34.794c9.673,8.673 21.922,14.696 36.765,18.032c14.593,3.279 31.726,4.926 51.401,4.926c38.009,-0 66.566,-8.781 85.736,-26.133c19.207,-17.386 28.96,-45.899 28.96,-85.638c-0,-19.259 -4.174,-35.938 -12.475,-50.05c-7.518,-12.781 -19.973,-21.523 -37.438,-26.11Zm-6.771,1.706c0,-0 -2.083,-2.057 -2.083,-2.057l0,0.926c0,1.912 2.083,2.106 2.083,2.106l0,0.038l-0.395,-0.076c19.461,3.766 33.165,12.239 41.012,25.579c7.949,13.513 11.9,29.496 11.9,47.938c0,38.26 -9.097,65.81 -27.59,82.549c-18.53,16.773 -46.198,25.055 -82.939,25.055c-19.325,-0 -36.154,-1.604 -50.487,-4.824c-14.082,-3.165 -25.72,-8.842 -34.897,-17.069c-9.168,-8.219 -15.945,-19.217 -20.37,-32.968c-4.342,-13.49 -6.571,-30.053 -6.717,-49.685c-0,0 80.659,0 80.659,0c0.077,8.973 0.656,16.523 1.729,22.651c1.169,6.682 2.764,12.359 4.768,17.036l0.011,0.027c4.276,9.264 11.72,13.911 22.379,13.911c5.553,0 10.059,-0.815 13.53,-2.377c3.683,-1.657 6.583,-4.745 8.608,-9.349c1.858,-4.222 3.148,-9.959 3.824,-17.221c0.655,-7.038 0.984,-15.958 0.984,-26.761c-0,-17.622 -3,-29.433 -8.592,-35.533c-5.699,-6.218 -14.551,-9.451 -26.642,-9.451c0.001,0 -20.829,0 -20.829,0c0,0 0,-52.383 0,-52.383c0,0 11.079,0 11.079,0c7.035,0 13.063,-0.68 18.087,-2.02c5.279,-1.408 9.674,-4.054 13.193,-7.924c3.446,-3.792 6.065,-9.032 7.789,-15.753c1.659,-6.471 2.502,-14.849 2.502,-25.136c0,-15.257 -2.117,-25.48 -6.016,-30.735c-4.108,-5.537 -10.407,-8.399 -18.98,-8.399c-9.646,0 -16.487,3.818 -20.596,11.321c-3.694,6.746 -5.707,18.888 -5.853,36.454l-77.675,0c1.262,-34.287 10.364,-59.436 27.541,-75.364l0.007,-0.007c17.555,-16.597 43.75,-24.787 78.527,-24.787c20.882,0 38.232,2.072 52.047,6.248c13.611,4.115 24.466,10.105 32.538,18.019c8.034,7.877 13.698,17.569 17.006,29.069c3.364,11.695 5.038,25.072 5.038,40.131c-0,6.679 -0.798,13.597 -2.388,20.754c-1.577,7.096 -4.178,13.719 -7.805,19.869c-3.61,6.121 -8.401,11.533 -14.365,16.241c-5.943,4.692 -13.3,7.959 -22.058,9.836l0.436,4.121Z" style="fill:#e31117;"/></svg>