<svg xmlns="http://www.w3.org/2000/svg" width="38.44" height="83.836" viewBox="0 0 38.44 83.836"><path d="M13.253.5H-9.509V-55.894H-25.187V-70.466h.5a50.069,50.069,0,0,0,8.571-.636,18.923,18.923,0,0,0,6.041-2.048,11.653,11.653,0,0,0,4.04-3.816,22.56,22.56,0,0,0,2.63-6.009l.1-.361H13.253ZM-8.509-.5H12.253V-82.336h-14.8A23.162,23.162,0,0,1-5.2-76.421a12.644,12.644,0,0,1-4.384,4.14,19.911,19.911,0,0,1-6.361,2.164,49.927,49.927,0,0,1-8.245.65v12.574H-8.509Z" transform="translate(25.187 83.336)" fill="#e31117"/></svg>