<?xml version="1.0" encoding="UTF-8" standalone="no"?>
<!DOCTYPE svg PUBLIC "-//W3C//DTD SVG 1.1//EN" "http://www.w3.org/Graphics/SVG/1.1/DTD/svg11.dtd">
<svg width="64" height="69" viewBox="0 0 65 70" version="1.1" xmlns="http://www.w3.org/2000/svg" xmlns:xlink="http://www.w3.org/1999/xlink" xml:space="preserve" xmlns:serif="http://www.serif.com/" style="fill-rule:evenodd;clip-rule:evenodd;stroke-linejoin:round;stroke-miterlimit:2;">
    <g transform="matrix(1,0,0,1,-497,-303)">
        <g transform="matrix(0.172507,0,0,0.172507,485.475,293.424)">
            <path d="M224,318.1C224.3,318.6 237.9,319 252.8,319.6L259.1,319.6C274.2,319.1 287.7,318.7 287.9,318.1C308.2,350 357.2,365.2 394.6,373.5C399.2,374.5 403.3,376.2 406.9,378.3C428.7,347.9 441.5,310.7 441.5,270.4C441.6,168 358.5,84.8 256,84.8C153.5,84.8 70.5,168 70.5,270.5C70.5,310.8 83.3,348 105.1,378.4C108.7,376.2 112.8,374.6 117.4,373.6C154.7,365.2 203.7,350.1 224,318.1Z" style="fill:rgb(85,150,157);fill-rule:nonzero;"/>
            <path d="M258.5,375.9C152.7,378.1 140.9,253.2 144.7,191.5C151.8,76.5 256.2,30.4 298.8,69.8C344.1,69.8 365.3,126.1 370.4,190.2C377.3,275.8 345.7,374.1 258.5,375.9" style="fill:rgb(162,67,35);"/>
            <path d="M250.3,456L250.3,374.8L256.1,368.9L261.9,374.8L261.9,456C321.8,454.2 374.5,424 407.1,378.4C403.5,376.2 399.4,374.6 394.8,373.6C357.5,365.3 308.4,350.1 288.1,318.2C287.8,318.7 274.2,319.1 259.3,319.7L253,319.7C237.9,319.2 224.4,318.8 224.2,318.2C203.9,350.1 154.9,365.3 117.5,373.6C112.9,374.6 108.8,376.3 105.2,378.4C137.7,424 190.4,454.2 250.3,456Z" style="fill:rgb(40,128,133);fill-rule:nonzero;"/>
            <path d="M291.2,234C291.2,210.8 273.6,199.2 256,199.2L256,368.8L291.2,320.1L291.2,234Z" style="fill:rgb(237,217,180);fill-rule:nonzero;"/>
            <path d="M220.9,234L220.9,320.1L256.1,368.7L256.1,199.1C238.5,199.1 220.9,210.7 220.9,234Z" style="fill:rgb(220,197,161);fill-rule:nonzero;"/>
            <path d="M291.2,234L291.2,291.6C277.9,302 265,307.9 256,307.9C247,307.9 234.1,302 220.8,291.6L220.8,234C220.9,187.5 291.2,187.5 291.2,234" style="fill:rgb(188,159,130);"/>
            <path d="M238.7,182.4C228.5,176.5 213.1,174.2 196.9,175.3C180.7,176.4 169.5,182.9 168.9,183.2C168.4,183.5 168.5,187.2 168.5,189.6C168.5,191.9 168.8,193.9 169.5,194.7C170.3,195.5 174.4,196.9 175.9,203.2C177.4,209.6 180.9,223.2 190.8,231.2C200.7,239.2 211.8,240.9 225.3,236.3C238.8,231.7 243.6,220.2 244.7,218.2C245.7,216.2 248.7,206.6 249.9,204.1C251.1,201.6 252.7,200.3 254.7,200.3L254.7,187.7C250.6,187.8 248.8,188.3 238.7,182.4M243.7,204.2C242.4,215.6 232.4,234.7 215.3,235.5C198.2,236.3 186.9,225.4 183.1,215.9C179.3,206.4 177.6,191.5 189.6,185.6C201.6,179.7 219.1,179.7 231.8,184.6C244.5,189.5 244.6,196.6 243.7,204.2" style="fill:rgb(112,61,34);fill-rule:nonzero;"/>
            <path d="M259.5,204.2C260.8,206.7 263.7,216.3 264.7,218.3C265.7,220.3 270.6,231.7 284.1,236.4C297.6,241.1 308.7,239.3 318.6,231.3C328.5,223.3 332,209.6 333.5,203.3C335,196.9 339.1,195.6 339.9,194.8C340.7,194 340.9,192 340.9,189.7C340.9,187.4 341,183.7 340.5,183.3C340,183 328.7,176.5 312.5,175.4C296.3,174.3 280.8,176.5 270.7,182.5C260.5,188.4 258.7,187.9 254.7,187.9L254.7,200.5C256.7,200.5 258.2,201.7 259.5,204.2M277.6,184.6C290.2,179.8 307.8,179.8 319.8,185.6C331.8,191.4 330,206.4 326.3,215.9C322.5,225.4 311.2,236.4 294.1,235.5C277,234.7 267,215.5 265.7,204.2C264.7,196.6 264.9,189.4 277.6,184.6" style="fill:rgb(86,44,25);fill-rule:nonzero;"/>
            <path d="M166,176.1C162.4,173.9 158.7,173.3 155.5,174.6C148.1,177.8 146.6,190.6 152.1,203.3C157.5,215.9 167.8,223.7 175.2,220.7C194,264.2 235.4,293.5 256.1,293.5L256.1,79.4C196.4,79.4 166.6,129.4 166,176.1Z" style="fill:rgb(220,197,161);fill-rule:nonzero;"/>
            <path d="M358.6,174.7C354.9,173.1 350.3,174.4 346.1,177.5C346.1,130.4 316.2,79.4 256,79.4L256,293.5C276.8,293.5 318.5,263.8 337.2,219.8C337.7,220.1 338.2,220.5 338.7,220.7C346.1,223.9 356.4,216.1 361.9,203.4C367.5,190.7 366,177.8 358.6,174.7Z" style="fill:rgb(237,217,180);fill-rule:nonzero;"/>
            <path d="M291.2,320.1L256,368.8L257.3,370.1L281.5,395.1L316.3,344.8L291.2,320.1Z" style="fill:white;fill-rule:nonzero;"/>
            <path d="M220.9,320.1L195.8,344.8L230.6,395.1L254.8,370.1L256,368.8L220.9,320.1Z" style="fill:white;fill-rule:nonzero;"/>
            <g>
                <g>
                    <path d="M265.4,256C265.4,256 265.7,261.9 255.6,261.9C252.7,261.9 246,260.6 246,256.1C252,257.5 259.1,257.9 265.4,256" style="fill:rgb(212,51,41);fill-rule:nonzero;"/>
                    <path d="M259.6,253.5C261.8,253.8 265.8,255.9 265.5,255.9C259.1,257.8 252,257.4 246.1,256.1C246,256.1 246,256.1 245.9,256C248,255.1 250.5,253.4 252.5,253.6C253.6,253.7 254.8,254.5 255.8,254.5C257.2,254.5 258.1,253.3 259.6,253.5" style="fill:rgb(202,48,41);fill-rule:nonzero;"/>
                    <path d="M242.6,255.2C250.3,258.4 260.8,258.6 268.3,255.1C268.5,255 268.4,254.8 268.1,254.8C259.3,257.6 251.8,257.1 242.6,255.2C242.6,255.1 242.6,255.2 242.6,255.2" style="fill:rgb(168,38,35);fill-rule:nonzero;"/>
                </g>
                <path d="M220.3,193.9C225.1,193.9 229.1,198.4 229.1,203.9C229.1,209.4 225.1,213.9 220.3,213.9C215.4,213.9 211.5,209.4 211.5,203.9C211.5,198.4 215.4,193.9 220.3,193.9" style="fill:rgb(52,34,20);fill-rule:nonzero;"/>
                <path d="M291.7,193.9C296.5,193.9 300.5,198.4 300.5,203.9C300.5,209.4 296.5,213.9 291.7,213.9C286.8,213.9 282.9,209.4 282.9,203.9C283,198.4 286.9,193.9 291.7,193.9" style="fill:rgb(52,34,20);fill-rule:nonzero;"/>
            </g>
            <path d="M349.1,205.1C376.8,86.6 293.4,66.4 244.6,66.4C189.7,66.4 148.4,131.5 157.6,207.3C186.9,189.7 212.7,154.8 276.6,97.9C267.3,114.6 249.2,145 187.5,199.9C220.7,205.4 282.5,163.6 315.4,119.8C323.4,151 334.7,185.1 349.1,205.1" style="fill:rgb(162,67,35);"/>
            <path d="M261.8,374.7L256,368.8L250.2,374.7L250.2,455.9C252.1,456 254.1,456 256,456L256,455.9L256,456C258,456 259.9,456 261.8,455.9L261.8,374.7Z" style="fill:white;fill-rule:nonzero;"/>
        </g>
    </g>
</svg>
