<?xml version="1.0" encoding="UTF-8" standalone="no"?><!DOCTYPE svg PUBLIC "-//W3C//DTD SVG 1.1//EN" "http://www.w3.org/Graphics/SVG/1.1/DTD/svg11.dtd"><svg width="100%" height="100%" viewBox="0 0 250 363" version="1.1" xmlns="http://www.w3.org/2000/svg" xmlns:xlink="http://www.w3.org/1999/xlink" xml:space="preserve" xmlns:serif="http://www.serif.com/" style="fill-rule:evenodd;clip-rule:evenodd;stroke-linejoin:round;stroke-miterlimit:2;"><path d="M11.79,126.722l-0.039,2.122l89.03,0l0,-16.708c0,-9.547 0.703,-17.264 2.135,-23.151c1.381,-5.679 3.19,-10.067 5.492,-13.137c2.17,-2.892 4.529,-4.877 7.133,-5.889c2.686,-1.045 5.522,-1.565 8.507,-1.565c6.454,0 11.594,2.483 15.408,7.47c4.043,5.288 5.909,14.962 5.909,28.959c-0,12.632 -1.778,22.822 -5.409,30.559c-3.652,7.78 -9.782,15.944 -18.356,24.518l-60.468,61.443c-20.072,20.731 -33.787,42.043 -41.189,63.919c-7.383,21.822 -11.078,45.038 -11.078,69.649l-0,2.083l231.341,0l0,-72.416l-118.043,-0c1.698,-3.964 4.377,-7.819 8.014,-11.582c4.7,-4.861 8.994,-9.237 12.884,-13.127c0,-0 53.625,-52.162 53.625,-52.162c13.177,-13.177 23.708,-27.826 31.608,-43.955c7.922,-16.174 11.912,-36.138 11.912,-59.904c0,-13.194 -1.57,-25.563 -4.704,-37.108c-3.18,-11.715 -9.036,-22.009 -17.572,-30.88c-8.493,-8.827 -20.054,-15.762 -34.71,-20.758c-14.474,-4.935 -33.221,-7.424 -56.247,-7.424c-24.03,-0 -43.448,2.825 -58.261,8.422c-15.016,5.672 -26.679,13.786 -35.021,24.297c-8.32,10.483 -13.99,23.123 -16.985,37.932c-2.948,14.576 -4.589,30.706 -4.916,48.393Zm4.212,-2.044c0.41,-16.584 2.004,-31.758 4.788,-45.523c2.855,-14.116 8.234,-26.176 16.165,-36.168c7.908,-9.964 18.995,-17.612 33.229,-22.99c14.437,-5.454 33.369,-8.153 56.789,-8.153c22.474,0 40.776,2.386 54.903,7.201c13.944,4.754 24.971,11.306 33.052,19.704c8.039,8.355 13.558,18.048 16.553,29.083c3.041,11.205 4.559,23.211 4.559,36.016c-0,23.035 -3.81,42.396 -11.488,58.072c-7.698,15.717 -17.964,29.99 -30.793,42.821c0,-0 -53.624,52.162 -53.624,52.162c-3.918,3.917 -8.232,8.313 -12.954,13.197c-4.966,5.138 -8.284,10.46 -9.997,15.94l-0.845,2.704l119.701,0c-0,0 -0,64.084 -0,64.084c-0,-0 -223,-0 -223,-0c0.203,-23.367 3.817,-45.444 10.85,-66.231c7.223,-21.347 20.644,-42.12 40.225,-62.344c-0,-0 60.439,-61.414 60.439,-61.414c8.972,-8.973 15.352,-17.544 19.174,-25.687c3.843,-8.188 5.803,-18.96 5.803,-32.329c0,-15.253 -2.359,-25.728 -6.766,-31.49c-4.636,-6.063 -10.871,-9.105 -18.717,-9.105c-3.515,-0 -6.854,0.617 -10.018,1.847c-3.247,1.263 -6.249,3.666 -8.955,7.273c-2.573,3.431 -4.664,8.305 -6.208,14.652c-1.493,6.138 -2.252,14.182 -2.252,24.136l-0,12.542l-80.613,-0Z" style="fill:#e31117;"/></svg>