<?xml version="1.0" encoding="UTF-8" standalone="no"?><!DOCTYPE svg PUBLIC "-//W3C//DTD SVG 1.1//EN" "http://www.w3.org/Graphics/SVG/1.1/DTD/svg11.dtd"><svg width="47px" height="44px" version="1.1" xmlns="http://www.w3.org/2000/svg" xmlns:xlink="http://www.w3.org/1999/xlink" xml:space="preserve" xmlns:serif="http://www.serif.com/" style="fill-rule:evenodd;clip-rule:evenodd;stroke-linejoin:round;stroke-miterlimit:2;"><path id="Trazado_17" d="M18.76,43.069L18.76,22.745L10.046,22.745C9.955,19.883 10.591,17.045 11.894,14.495C13.129,12.248 15.417,10.553 18.76,9.409L18.76,0.697C16.099,1.027 13.524,1.856 11.17,3.139C8.894,4.37 6.859,6.002 5.164,7.957C3.463,9.943 2.143,12.225 1.27,14.689C0.335,17.312 -0.091,20.09 0.016,22.873L0.016,43.073L18.76,43.069ZM46.876,43.069L46.876,22.745L38.164,22.745C38.073,19.883 38.709,17.045 40.012,14.495C41.244,12.251 43.532,10.557 46.876,9.413L46.876,0.701C44.215,1.031 41.64,1.86 39.286,3.143C37.01,4.374 34.975,6.006 33.28,7.961C31.58,9.945 30.26,12.226 29.386,14.689C28.451,17.312 28.025,20.09 28.132,22.873L28.132,43.073L46.876,43.069Z" style="fill:#e31117;fill-rule:nonzero;"/></svg>